<svg style="max-height: 500px" viewBox="0 0.29647058823529415 163.44405 26.68235294117647" fill="none" xmlns="http://www.w3.org/2000/svg" width="163.44405" height="26.68235294117647">
<path d="M47.2755 0.947754V26.6124H43.0888V15.8701L43.4964 6.77723L30.492 26.6124H25.5642V0.947754H29.7507V11.69L29.3804 20.7461L42.348 0.947754H47.2755Z" fill="black"/>
<path d="M67.4407 10.3339H60.8088V26.6124H56.6219V10.3339H49.953V6.44711H67.4407V10.3339Z" fill="black"/>
<path d="M89.5736 16.5296C89.5736 22.5427 85.165 27.0521 79.0514 27.0521C74.2348 27.0521 69.8262 24.2659 68.8998 19.2429H73.2345C73.9756 21.8826 76.3842 23.3126 79.0514 23.3126C82.275 23.3126 84.6461 21.2225 85.2019 18.0697H77.6806V14.8064H85.165C84.5722 11.7636 82.2375 9.7473 79.0145 9.7473C76.2728 9.7473 73.9386 11.213 73.2345 13.7799H68.8998C69.7887 8.90318 74.1239 6.00672 79.0145 6.00672C85.128 6.00672 89.5736 10.5167 89.5736 16.5296Z" fill="black"/>
<path d="M111.855 6.44706V26.6124H107.668V10.3339H100.925L99.591 18.7665C98.5908 24.779 96.331 27.0521 92.8483 27.0521C92.1811 27.0521 91.44 26.9425 90.7733 26.8324V23.0926C91.1808 23.1293 91.5883 23.2028 91.9958 23.2028C93.9594 23.2028 94.8119 22.1393 95.4416 18.3996L97.3683 6.44706H111.855Z" fill="black"/>
<path d="M138.204 6.44711V26.6124H134.017V18.1799L134.314 11.177L127.311 21.0396H127.2L120.198 11.177L120.494 18.1799V26.6124H116.307V6.44711H121.235L127.237 14.733L133.276 6.44711H138.204Z" fill="black"/>
<path d="M158.343 16.5296C158.343 12.6803 155.639 9.96721 152.082 9.96721C148.525 9.96721 146.006 12.6803 146.006 16.5296C146.006 20.4162 148.562 23.0926 152.082 23.0926C155.639 23.0926 158.343 20.4162 158.343 16.5296ZM162.493 6.44706V26.6124H158.306V23.2396C156.824 25.5493 154.379 27.0521 151.193 27.0521C145.746 27.0521 141.782 22.6892 141.782 16.5296C141.782 10.3699 145.821 6.00672 151.156 6.00672C154.379 6.00672 156.824 7.58371 158.306 9.89356V6.44706H162.493Z" fill="black"/>
<path d="M184.211 12.181C184.211 15.4249 181.852 17.8541 178.574 17.8541C175.961 17.8541 173.871 16.318 173.222 14.046H175.138C175.692 15.378 177.022 16.1615 178.574 16.1615C180.569 16.1615 182.01 14.8452 182.327 12.9805H177.656V11.2879H182.311C181.962 9.4703 180.537 8.20113 178.574 8.20113C177.006 8.20113 175.692 8.98466 175.138 10.3167H173.222C173.855 8.04463 175.929 6.50854 178.558 6.50854C181.852 6.50854 184.211 8.9377 184.211 12.181Z" fill="black"/>
<path d="M193.948 9.04751V17.6657H192.159V10.7084H189.277L188.707 14.3123C188.279 16.8822 187.313 17.8541 185.825 17.8541C185.54 17.8541 185.223 17.8065 184.938 17.7596V16.1615C185.112 16.1772 185.287 16.2085 185.461 16.2085C186.3 16.2085 186.664 15.7539 186.934 14.1558L187.757 9.04751H193.948Z" fill="black"/>
<path d="M197.79 12.4003H202.857C202.588 11.2255 201.686 10.3946 200.371 10.3946C199.009 10.3946 198.091 11.2408 197.79 12.4003ZM204.773 13.8426H197.695C197.837 15.4249 198.962 16.3023 200.419 16.3023C201.464 16.3023 202.335 15.8634 202.747 15.0179H204.599C203.918 16.945 202.255 17.8541 200.403 17.8541C197.758 17.8541 195.874 15.9732 195.874 13.3722C195.874 10.7711 197.743 8.85914 200.371 8.85914C203.174 8.85914 204.947 11.0063 204.773 13.8426Z" fill="black"/>
<path d="M212.528 17.6657L208.427 13.6852V17.6657H206.638V9.04743H208.427V12.7767L212.195 9.04743H214.492L210.232 13.1369L214.84 17.6657H212.528Z" fill="black"/>
<path d="M223.308 10.7084H220.474V17.6657H218.684V10.7084H215.834V9.04743H223.308V10.7084Z" fill="black"/>
<path d="M231.89 13.3562C231.89 11.711 230.813 10.5516 229.293 10.5516C227.773 10.5516 226.617 11.711 226.617 13.3562C226.617 15.0178 227.773 16.1614 229.293 16.1614C230.797 16.1614 231.89 15.0178 231.89 13.3562ZM233.695 13.3562C233.695 15.989 232.001 17.854 229.673 17.854C228.311 17.854 227.266 17.1953 226.632 16.224V21.5833H224.843V9.04742H226.632V10.52C227.266 9.53305 228.311 8.85906 229.689 8.85906C231.969 8.85906 233.695 10.724 233.695 13.3562Z" fill="black"/>
<path d="M237.051 13.3563C237.051 15.0179 238.238 16.1615 239.758 16.1615C241.279 16.1615 242.466 15.0179 242.466 13.3563C242.466 11.6954 241.262 10.5517 239.758 10.5517C238.254 10.5517 237.051 11.6954 237.051 13.3563ZM244.271 13.3563C244.271 15.942 242.292 17.8541 239.758 17.8541C237.241 17.8541 235.245 15.9262 235.245 13.3563C235.245 10.7551 237.272 8.85914 239.758 8.85914C242.26 8.85914 244.271 10.7551 244.271 13.3563Z" fill="black"/>
<path d="M254.369 9.04743V17.6657H252.58V14.1087H247.956V17.6657H246.167V9.04743H247.956V12.4319H252.58V9.04743H254.369Z" fill="black"/>
<path d="M264.901 9.04743V17.6657H263.112V14.1087H258.488V17.6657H256.699V9.04743H258.488V12.4319H263.112V9.04743H264.901Z" fill="black"/>
<path d="M277.713 9.04743V17.6657H275.924V9.04743H277.713ZM272.837 14.6413C272.837 13.8425 272.52 13.3093 271.427 13.3093H269.02V15.9731H271.395C272.488 15.9731 272.837 15.4089 272.837 14.6413ZM274.642 14.6413C274.642 16.7097 273.248 17.6657 271.459 17.6657H267.231V9.04743H269.02V11.7423H271.522C273.312 11.7423 274.642 12.5727 274.642 14.6413Z" fill="black"/>
<path d="M281.565 12.4003H286.632C286.363 11.2255 285.461 10.3946 284.146 10.3946C282.785 10.3946 281.866 11.2408 281.565 12.4003ZM288.548 13.8426H281.47C281.613 15.4249 282.737 16.3023 284.194 16.3023C285.238 16.3023 286.109 15.8634 286.521 15.0179H288.374C287.693 16.945 286.03 17.8541 284.178 17.8541C281.534 17.8541 279.649 15.9732 279.649 13.3722C279.649 10.7711 281.518 8.85914 284.146 8.85914C286.949 8.85914 288.722 11.0063 288.548 13.8426Z" fill="black"/>
<path d="M303.39 13.3562C303.39 11.7114 302.313 10.5516 300.793 10.5516C299.273 10.5516 298.117 11.7114 298.117 13.3562C298.117 15.0178 299.273 16.1612 300.793 16.1612C302.298 16.1612 303.39 15.0178 303.39 13.3562ZM305.195 13.3562C305.195 15.9888 303.501 17.8542 301.173 17.8542C299.812 17.8542 298.766 17.1955 298.133 16.2238V21.5833H296.344V9.04742H298.133V10.5204C298.766 9.53305 299.812 8.85927 301.189 8.85927C303.469 8.85927 305.195 10.724 305.195 13.3562Z" fill="black"/>
<path d="M308.662 12.4009H313.729C313.46 11.2256 312.558 10.3949 311.243 10.3949C309.881 10.3949 308.963 11.2407 308.662 12.4009ZM315.645 13.8425H308.567C308.709 15.4248 309.834 16.3022 311.291 16.3022C312.335 16.3022 313.207 15.8635 313.618 15.0178H315.471C314.79 16.9448 313.127 17.8542 311.275 17.8542C308.63 17.8542 306.746 15.9733 306.746 13.3719C306.746 10.7712 308.615 8.85925 311.243 8.85925C314.046 8.85925 315.819 11.0062 315.645 13.8425Z" fill="black"/>
<path d="M329.211 9.04745V17.6657H317.509V9.04745H319.298V16.0052H322.465V9.04745H324.255V16.0052H327.422V9.04745H329.211Z" fill="black"/>
<path d="M333.069 12.4009H338.136C337.867 11.2256 336.965 10.3949 335.65 10.3949C334.288 10.3949 333.37 11.2407 333.069 12.4009ZM340.053 13.8425H332.974C333.117 15.4248 334.241 16.3022 335.698 16.3022C336.743 16.3022 337.614 15.8635 338.026 15.0178H339.878C339.197 16.9448 337.535 17.8542 335.682 17.8542C333.037 17.8542 331.153 15.9733 331.153 13.3719C331.153 10.7712 333.022 8.85925 335.65 8.85925C338.453 8.85925 340.227 11.0062 340.053 13.8425Z" fill="black"/>
<path d="M350.118 9.04745V17.6657H348.329V14.109H343.705V17.6657H341.916V9.04745H343.705V12.4321H348.329V9.04745H350.118Z" fill="black"/>
<path d="M360.54 9.04745V17.6657H358.751V14.062L358.861 11.3352L354.554 17.6657H352.448V9.04745H354.237V12.6517L354.127 15.362L358.434 9.04745H360.54Z" fill="black"/>
<path d="M368.305 13.0897V10.6457H365.819C364.711 10.6457 364.362 11.1781 364.362 11.899C364.362 12.6045 364.806 13.0897 365.867 13.0897H368.305ZM370.095 9.04745V17.6657H368.305V14.5473H366.579L364.315 17.6657H362.114L364.663 14.4217C363.46 14.1247 362.557 13.372 362.557 11.9308C362.557 9.94052 363.935 9.04745 365.724 9.04745H370.095Z" fill="black"/>
<path d="M2.30082 11.923C1.53688 11.923 0.91748 11.3103 0.91748 10.5539C0.91748 9.79804 1.53688 9.18532 2.30082 9.18532C3.06476 9.18532 3.68416 9.79804 3.68416 10.5539C3.68416 11.3103 3.06476 11.923 2.30082 11.923Z" fill="black"/>
<path d="M12.8517 11.923C12.0878 11.923 11.4684 11.3103 11.4684 10.5539C11.4684 9.79804 12.0878 9.18532 12.8517 9.18532C13.6158 9.18532 14.2353 9.79804 14.2353 10.5539C14.2353 11.3103 13.6158 11.923 12.8517 11.923Z" fill="black"/>
<path d="M12.8517 22.3643C12.0878 22.3643 11.4684 21.7513 11.4684 20.9953C11.4684 20.2391 12.0878 19.6262 12.8517 19.6262C13.6158 19.6262 14.2353 20.2391 14.2353 20.9953C14.2353 21.7513 13.6158 22.3643 12.8517 22.3643Z" fill="black"/>
</svg>