<svg width="91" height="37" viewBox="0 0 91 37" fill="none" xmlns="http://www.w3.org/2000/svg">
<path d="M25.9722 0.000584602V14.4365H23.6266V8.39412L23.8549 3.27955L16.5691 14.4365H13.8083V0.000584602H16.1538V6.04287L15.9464 11.1368L23.2115 0.000584602H25.9722Z" fill="black"/>
<path d="M37.2698 5.28013H33.5543V14.4365H31.2086V5.28013H27.4723V3.09386H33.5543H37.2698V5.28013Z" fill="black"/>
<path d="M49.6697 8.76507C49.6697 12.1474 47.1998 14.6838 43.7747 14.6838C41.0762 14.6838 38.6062 13.1166 38.0872 10.2913H40.5157C40.931 11.7761 42.2804 12.5804 43.7747 12.5804C45.5807 12.5804 46.9091 11.4048 47.2205 9.63135H43.0067V7.79581H47.1998C46.8677 6.08431 45.5597 4.95019 43.754 4.95019C42.218 4.95019 40.9102 5.77463 40.5157 7.21843H38.0872C38.5852 4.47538 41.0141 2.84618 43.754 2.84618C47.1791 2.84618 49.6697 5.38298 49.6697 8.76507Z" fill="black"/>
<path d="M62.1528 3.09387V14.4365H59.8073V5.28014H56.0294L55.2821 10.0233C54.7217 13.4052 53.4557 14.6838 51.5045 14.6838C51.1307 14.6838 50.7155 14.6222 50.3419 14.5602V12.4567C50.5703 12.4773 50.7986 12.5186 51.0269 12.5186C52.127 12.5186 52.6046 11.9205 52.9574 9.81692L54.0368 3.09387H62.1528Z" fill="black"/>
<path d="M76.915 3.09386V14.4365H74.5696V9.6933L74.7355 5.75435L70.8123 11.3018H70.7502L66.8271 5.75435L66.993 9.6933V14.4365H64.6472V3.09386H67.4082L70.7709 7.75449L74.1544 3.09386H76.915Z" fill="black"/>
<path d="M88.1982 8.76507C88.1982 6.59995 86.6829 5.07388 84.6903 5.07388C82.6976 5.07388 81.2861 6.59995 81.2861 8.76507C81.2861 10.9512 82.7183 12.4567 84.6903 12.4567C86.6829 12.4567 88.1982 10.9512 88.1982 8.76507ZM90.5229 3.09387V14.4365H88.1775V12.5393C87.3471 13.8385 85.9773 14.6838 84.192 14.6838C81.1406 14.6838 78.9197 12.2298 78.9197 8.76507C78.9197 5.30042 81.1823 2.84618 84.1713 2.84618C85.9773 2.84618 87.3471 3.73321 88.1775 5.03246V3.09387H90.5229Z" fill="black"/>
<path d="M19.3222 22.5002C19.3222 24.3248 18.0002 25.6912 16.1637 25.6912C14.7 25.6912 13.529 24.8271 13.1652 23.5492H14.2386C14.5491 24.2984 15.2944 24.7391 16.1637 24.7391C17.2816 24.7391 18.089 23.9987 18.2663 22.9498H15.6492V21.9978H18.2574C18.0622 20.9754 17.2638 20.2616 16.1637 20.2616C15.2856 20.2616 14.5491 20.7023 14.2386 21.4515H13.1652C13.52 20.1735 14.6822 19.3095 16.1548 19.3095C18.0002 19.3095 19.3222 20.6759 19.3222 22.5002Z" fill="black"/>
<path d="M24.7773 20.7376V25.5852H23.7748V21.6719H22.1602L21.8409 23.699C21.6013 25.1445 21.0601 25.6912 20.2263 25.6912C20.0665 25.6912 19.8891 25.6644 19.7293 25.638V24.7391C19.8269 24.748 19.9245 24.7655 20.0223 24.7655C20.4923 24.7655 20.6964 24.5098 20.8473 23.6109L21.3086 20.7376H24.7773Z" fill="black"/>
<path d="M26.9296 22.6235H29.7684C29.6179 21.9627 29.1121 21.4954 28.3757 21.4954C27.6128 21.4954 27.0981 21.9713 26.9296 22.6235ZM30.8419 23.4348H26.8763C26.9562 24.3248 27.5861 24.8183 28.4024 24.8183C28.9878 24.8183 29.4758 24.5714 29.7066 24.0958H30.7443C30.3628 25.1798 29.4314 25.6912 28.3935 25.6912C26.912 25.6912 25.8562 24.6332 25.8562 23.1702C25.8562 21.7071 26.9031 20.6317 28.3757 20.6317C29.9461 20.6317 30.9395 21.8394 30.8419 23.4348Z" fill="black"/>
<path d="M35.1868 25.5852L32.8889 23.3463V25.5852H31.8864V20.7376H32.8889V22.8353L35.0001 20.7376H36.2869L33.9003 23.0379L36.482 25.5852H35.1868Z" fill="black"/>
<path d="M41.2264 21.6719H39.6383V25.5852H38.6358V21.6719H37.0389V20.7376H39.6383H41.2264V21.6719Z" fill="black"/>
<path d="M46.034 23.1612C46.034 22.2359 45.4308 21.5837 44.5791 21.5837C43.7274 21.5837 43.0797 22.2359 43.0797 23.1612C43.0797 24.0958 43.7274 24.7391 44.5791 24.7391C45.4219 24.7391 46.034 24.0958 46.034 23.1612ZM47.0454 23.1612C47.0454 24.6421 46.0961 25.6912 44.792 25.6912C44.029 25.6912 43.4435 25.3207 43.0886 24.7743V27.7888H42.0861V20.7376H43.0886V21.5659C43.4435 21.0108 44.029 20.6317 44.8009 20.6317C46.0784 20.6317 47.0454 21.6807 47.0454 23.1612Z" fill="black"/>
<path d="M48.9254 23.1612C48.9254 24.0958 49.5908 24.7391 50.4425 24.7391C51.2942 24.7391 51.9596 24.0958 51.9596 23.1612C51.9596 22.227 51.285 21.5837 50.4425 21.5837C49.5997 21.5837 48.9254 22.227 48.9254 23.1612ZM52.9707 23.1612C52.9707 24.6156 51.862 25.6912 50.4425 25.6912C49.0319 25.6912 47.914 24.6068 47.914 23.1612C47.914 21.6981 49.0496 20.6317 50.4425 20.6317C51.8439 20.6317 52.9707 21.6981 52.9707 23.1612Z" fill="black"/>
<path d="M58.6283 20.7376V25.5852H57.6257V23.5845H55.0352V25.5852H54.0329V20.7376H55.0352V22.6413H57.6257V20.7376H58.6283Z" fill="black"/>
<path d="M64.529 20.7376V25.5852H63.5265V23.5845H60.9359V25.5852H59.9333V20.7376H60.9359V22.6413H63.5265V20.7376H64.529Z" fill="black"/>
<path d="M71.7069 20.7376V25.5852H70.7044V20.7376H71.7069ZM68.9747 23.8841C68.9747 23.4348 68.7972 23.1349 68.1851 23.1349H66.8365V24.6332H68.1673C68.7795 24.6332 68.9747 24.3158 68.9747 23.8841ZM69.9861 23.8841C69.9861 25.0475 69.2053 25.5852 68.2028 25.5852H65.834V20.7376H66.8365V22.2534H68.238C69.2408 22.2534 69.9861 22.7205 69.9861 23.8841Z" fill="black"/>
<path d="M73.8648 22.6235H76.7035C76.553 21.9627 76.0473 21.4954 75.3106 21.4954C74.5479 21.4954 74.0334 21.9713 73.8648 22.6235ZM77.777 23.4348H73.8116C73.8914 24.3248 74.5213 24.8183 75.3375 24.8183C75.9228 24.8183 76.4107 24.5714 76.6414 24.0958H77.6794C77.2979 25.1798 76.3664 25.6912 75.3287 25.6912C73.8471 25.6912 72.7913 24.6332 72.7913 23.1702C72.7913 21.7071 73.8382 20.6317 75.3106 20.6317C76.8812 20.6317 77.8746 21.8394 77.777 23.4348Z" fill="black"/>
<path d="M17.3793 32.3724C17.3793 31.4473 16.7759 30.7949 15.9243 30.7949C15.0726 30.7949 14.425 31.4473 14.425 32.3724C14.425 33.307 15.0726 33.9502 15.9243 33.9502C16.7671 33.9502 17.3793 33.307 17.3793 32.3724ZM18.3906 32.3724C18.3906 33.8532 17.4413 34.9024 16.1372 34.9024C15.3743 34.9024 14.7887 34.532 14.4339 33.9854V37H13.4314V29.9488H14.4339V30.7773C14.7887 30.222 15.3743 29.843 16.1461 29.843C17.4236 29.843 18.3906 30.8919 18.3906 32.3724Z" fill="black"/>
<path d="M20.3327 31.8351H23.1716C23.0207 31.174 22.5153 30.7068 21.7788 30.7068C21.0159 30.7068 20.5013 31.1825 20.3327 31.8351ZM24.2452 32.6459H20.2795C20.3593 33.536 20.9892 34.0295 21.8055 34.0295C22.3908 34.0295 22.8789 33.7827 23.1096 33.307H24.1475C23.766 34.3909 22.8344 34.9024 21.7966 34.9024C20.3149 34.9024 19.2593 33.8445 19.2593 32.3813C19.2593 30.9184 20.3062 29.843 21.7788 29.843C23.3492 29.843 24.3428 31.0506 24.2452 32.6459Z" fill="black"/>
<path d="M31.8453 29.9488V34.7964H25.2894V29.9488H26.2918V33.8624H28.0662V29.9488H29.0686V33.8624H30.843V29.9488H31.8453Z" fill="black"/>
<path d="M34.0068 31.8351H36.8458C36.6947 31.174 36.1893 30.7068 35.4529 30.7068C34.6899 30.7068 34.1754 31.1825 34.0068 31.8351ZM37.9193 32.6459H33.9536C34.0334 33.536 34.6633 34.0295 35.4795 34.0295C36.0651 34.0295 36.553 33.7827 36.7837 33.307H37.8214C37.4399 34.3909 36.5087 34.9024 35.4706 34.9024C33.989 34.9024 32.9333 33.8445 32.9333 32.3813C32.9333 30.9184 33.9802 29.843 35.4529 29.843C37.0232 29.843 38.0169 31.0506 37.9193 32.6459Z" fill="black"/>
<path d="M43.5588 29.9488V34.7964H42.5563V32.7958H39.9657V34.7964H38.9635V29.9488H39.9657V31.8526H42.5563V29.9488H43.5588Z" fill="black"/>
<path d="M49.3974 29.9488V34.7964H48.3949V32.7694L48.457 31.2356L46.0438 34.7964H44.8639V29.9488H45.8664V31.9761L45.8043 33.5006L48.2175 29.9488H49.3974Z" fill="black"/>
<path d="M53.7482 32.2225V30.8478H52.3553C51.7343 30.8478 51.5391 31.1472 51.5391 31.5527C51.5391 31.9496 51.7875 32.2225 52.3819 32.2225H53.7482ZM54.7507 29.9488V34.7964H53.7482V33.0423H52.7811L51.5125 34.7964H50.2793L51.7076 32.9717C51.0334 32.8047 50.5277 32.3813 50.5277 31.5706C50.5277 30.4511 51.2995 29.9488 52.3021 29.9488H54.7507Z" fill="black"/>
<path d="M0.775017 6.17389C0.34702 6.17389 0 5.82925 0 5.4038C0 4.97866 0.34702 4.63401 0.775017 4.63401C1.20302 4.63401 1.55004 4.97866 1.55004 5.4038C1.55004 5.82925 1.20302 6.17389 0.775017 6.17389Z" fill="black"/>
<path d="M6.68615 6.17389C6.25814 6.17389 5.91113 5.82925 5.91113 5.4038C5.91113 4.97866 6.25814 4.63401 6.68615 4.63401C7.11425 4.63401 7.46128 4.97866 7.46128 5.4038C7.46128 5.82925 7.11425 6.17389 6.68615 6.17389Z" fill="black"/>
<path d="M6.68615 12.0469C6.25814 12.0469 5.91113 11.7021 5.91113 11.2769C5.91113 10.8516 6.25814 10.5068 6.68615 10.5068C7.11425 10.5068 7.46128 10.8516 7.46128 11.2769C7.46128 11.7021 7.11425 12.0469 6.68615 12.0469Z" fill="black"/>
</svg>
